# 3ds Max Wavefront OBJ Exporter v0.97b - (c)2007 guruware
# File Created: 03.02.2018 18:28:03

mtllib ex2.mtl

#
# object Plane001
#

#
# object Plane004
#

v  -47.6969 7.6008 -5.6340
v  -47.6969 50.8235 -5.6340
v  -47.6969 50.8235 5.5977
v  -47.6969 7.6008 5.5977
v  -41.5193 7.6008 11.6271
v  -41.5193 50.8235 11.6271
v  -28.3469 50.8235 11.6271
v  -28.3469 7.6008 11.6271
v  -33.4878 50.8235 7.2584
v  -33.4878 7.6008 7.2584
v  -41.2649 7.6008 -11.6271
v  -41.2649 21.8270 -11.6271
v  -41.2649 29.2121 -11.6271
v  -41.2649 36.5990 -11.6271
v  -41.2649 50.8235 -11.6271
v  -28.0587 50.8235 0.8933
v  -28.0587 7.6008 0.8933
v  -15.6862 50.8241 11.6270
v  -15.6862 36.5988 11.6270
v  -15.6862 29.2127 11.6270
v  -15.6862 21.8267 11.6270
v  -15.6862 7.6014 11.6270
v  47.6969 7.6008 -5.6340
v  47.6969 7.6008 5.5977
v  47.6969 50.8235 5.5977
v  47.6969 50.8235 -5.6340
v  41.5193 7.6008 11.6271
v  28.3469 7.6008 11.6271
v  28.3469 50.8235 11.6271
v  41.5193 50.8235 11.6271
v  33.4878 7.6008 7.0584
v  33.4878 50.8235 7.0584
v  41.2649 7.6008 -11.6271
v  41.2649 50.8235 -11.6271
v  41.2649 36.5990 -11.6271
v  41.2649 29.2121 -11.6271
v  41.2649 21.8270 -11.6271
v  28.0586 7.6008 0.8933
v  28.0586 50.8235 0.8933
v  15.6862 7.6014 11.6270
v  15.6862 21.8267 11.6270
v  15.6862 29.2127 11.6270
v  15.6862 36.5988 11.6270
v  15.6862 50.8241 11.6270
v  -7.6130 7.6014 11.6270
v  -0.0000 7.6014 11.6270
v  7.6130 7.6014 11.6270
v  7.6130 7.6008 -11.6271
v  -0.0000 7.6008 -11.6271
v  -7.6130 7.6008 -11.6271
v  6.4013 22.8114 11.6270
v  -0.0000 20.1599 11.6270
v  9.0529 29.2127 11.6270
v  -6.4013 22.8114 11.6270
v  -9.0529 29.2127 11.6270
v  -7.6130 50.8241 11.6270
v  -6.4013 35.6141 11.6270
v  -0.0000 50.8241 11.6270
v  -0.0000 38.2656 11.6270
v  7.6130 50.8241 11.6270
v  6.4013 35.6141 11.6270
v  -7.6130 50.8235 -11.6271
v  -0.0000 50.8235 -11.6271
v  7.6130 50.8235 -11.6271
v  -6.3528 22.7633 -11.6271
v  -9.0526 29.1444 -11.6271
v  6.4495 22.8600 -11.6271
v  0.0684 20.1602 -11.6271
v  6.3528 35.6623 -11.6271
v  9.0526 29.2812 -11.6271
v  -6.4495 35.5656 -11.6271
v  -0.0684 38.2654 -11.6271
v  -0.0000 20.4398 11.6270
v  6.2034 23.0094 11.6270
v  8.7729 29.2127 11.6270
v  -8.7729 29.2127 11.6270
v  -6.2034 23.0094 11.6270
v  -0.0000 37.9856 11.6270
v  -6.2034 35.4161 11.6270
v  6.2034 35.4161 11.6270
v  -8.8075 29.1463 -11.6271
v  -6.2749 35.3936 -11.6271
v  6.1808 35.4877 -11.6271
v  8.8075 29.2793 -11.6271
v  -0.0665 38.0203 -11.6271
v  -6.1808 22.9379 -11.6271
v  6.2749 23.0320 -11.6271
v  0.0665 20.4053 -11.6271
v  -6.2046 35.4157 11.2208
v  -8.7735 29.2116 11.2208
v  -0.0012 37.9862 11.2208
v  6.2030 35.4174 11.2208
v  8.7735 29.2139 11.2208
v  6.2046 23.0098 11.2208
v  0.0012 20.4392 11.2208
v  -6.2030 23.0081 11.2208
v  -6.2734 35.3941 -11.1422
v  -8.8068 29.1477 -11.1422
v  -0.0651 38.0196 -11.1422
v  6.1813 35.4862 -11.1422
v  8.8068 29.2779 -11.1422
v  6.2734 23.0315 -11.1422
v  0.0651 20.4060 -11.1422
v  -6.1813 22.9394 -11.1422
# 104 vertices

vn 0.7141 0.6274 0.3107
vn 0.7141 -0.6274 0.3107
vn 0.7162 -0.6293 -0.3018
vn 0.7162 0.6293 -0.3018
vn 0.2924 0.6313 -0.7183
vn 0.2924 -0.6313 -0.7183
vn -0.7870 -0.5450 -0.2892
vn -0.7870 0.5450 -0.2892
vn -0.8139 0.5773 0.0653
vn -0.8139 -0.5773 0.0653
vn 0.2835 0.6332 0.7202
vn 0.3663 0.0000 0.9305
vn 0.2835 -0.6332 0.7202
vn -0.0612 0.5769 -0.8145
vn -0.0612 -0.5769 -0.8145
vn 0.2698 -0.6362 -0.7228
vn 0.3497 0.0000 -0.9368
vn 0.2698 0.6362 -0.7228
vn -0.7141 0.6274 0.3107
vn -0.7162 0.6293 -0.3017
vn -0.7162 -0.6293 -0.3017
vn -0.7141 -0.6274 0.3107
vn -0.2924 0.6313 -0.7183
vn 0.7834 0.5455 -0.2978
vn 0.7834 -0.5455 -0.2978
vn -0.2924 -0.6313 -0.7183
vn 0.8148 -0.5776 0.0499
vn 0.8148 0.5776 0.0499
vn -0.2835 0.6332 0.7202
vn -0.2835 -0.6332 0.7202
vn -0.3663 0.0000 0.9305
vn 0.0547 -0.5777 -0.8144
vn 0.0547 0.5777 -0.8144
vn -0.2698 0.6362 -0.7228
vn -0.3497 0.0000 -0.9368
vn -0.2698 -0.6362 -0.7228
vn 0.0000 0.7071 -0.7071
vn 0.0000 0.7071 0.7071
vn 0.0000 0.0000 -1.0000
vn -0.0000 -0.7071 -0.7071
vn -0.0000 -0.7071 0.7071
vn 0.0000 0.0000 1.0000
vn -0.0004 -0.5949 -0.8038
vn 0.4204 -0.4210 -0.8038
vn 0.5949 -0.0004 -0.8038
vn -0.5949 0.0004 -0.8038
vn -0.4210 -0.4204 -0.8038
vn 0.0004 0.5949 -0.8038
vn -0.4204 0.4210 -0.8038
vn 0.4210 0.4204 -0.8038
vn -0.5938 -0.0049 0.8046
vn -0.4233 0.4164 0.8046
vn 0.4164 0.4233 0.8046
vn 0.5938 0.0049 0.8046
vn -0.0049 0.5938 0.8046
vn -0.4164 -0.4233 0.8046
vn 0.4233 -0.4164 0.8046
vn 0.0049 -0.5938 0.8046
vn -0.7072 0.7070 0.0015
vn -1.0000 -0.0001 0.0015
vn -0.0001 1.0000 0.0015
vn 0.7070 0.7072 0.0015
vn 1.0000 0.0001 0.0015
vn 0.7072 -0.7070 0.0015
vn 0.0001 -1.0000 0.0015
vn -0.7070 -0.7072 0.0015
vn -0.7123 0.7019 0.0015
vn -1.0000 -0.0074 0.0015
vn -0.0074 1.0000 0.0015
vn 0.7019 0.7123 0.0015
vn 1.0000 0.0074 0.0015
vn 0.7123 -0.7019 0.0015
vn 0.0074 -1.0000 0.0015
vn -0.7019 -0.7123 0.0015
# 74 vertex normals

vt 1.0000 0.8098 0.0000
vt 1.0000 0.1917 0.0000
vt 0.9614 0.0000 0.0000
vt 0.8270 0.0000 0.0000
vt 0.8270 0.3397 0.0000
vt 0.9469 1.0000 0.0000
vt 0.8870 0.6698 0.0000
vt 0.9170 0.8349 0.0000
vt 0.8570 0.5047 0.0000
vt 0.8275 0.3426 0.0000
vt 0.8280 0.3454 0.0000
vt 0.8286 0.3483 0.0000
vt 0.8564 0.5013 0.0000
vt 0.8857 0.6629 0.0000
vt 0.9151 0.8246 0.0000
# 15 texture coords

o Plane004
g Plane004
usemtl wire_143225087
s off
f 1/1/1 2/1/2 3/2/3 4/2/4 
f 5/3/5 6/3/6 7/4/7 8/4/8 
f 8/4/8 7/4/7 9/5/9 10/5/10 
f 11/6/11 12/6/12 13/6/12 14/6/12 15/6/13 2/1/2 1/1/1 
f 4/2/4 3/2/3 6/3/6 5/3/5 
f 9/5/9 16/5/14 17/5/15 10/5/10 
f 16/5/14 18/5/16 19/5/17 20/5/17 21/5/17 22/5/18 17/5/15 
f 23/1/19 24/2/20 25/2/21 26/1/22 
f 27/3/23 28/4/24 29/4/25 30/3/26 
f 28/4/24 31/5/27 32/5/28 29/4/25 
f 33/6/29 23/1/19 26/1/22 34/6/30 35/6/31 36/6/31 37/6/31 
f 24/2/20 27/3/23 30/3/26 25/2/21 
f 32/5/28 31/5/27 38/5/32 39/5/33 
f 39/5/33 38/5/32 40/5/34 41/5/35 42/5/35 43/5/35 44/5/36 
f 4/2/4 5/3/5 8/4/8 10/5/10 17/5/15 22/5/18 45/5/37 46/5/37 47/5/37 40/5/34 38/5/32 31/5/27 28/4/24 27/3/23 24/2/20 23/1/19 33/6/29 48/6/38 49/6/38 50/6/38 11/6/11 1/1/1 
s 1
f 41/5/35 40/5/34 47/5/37 51/5/39 
f 47/5/37 46/5/37 52/5/39 51/5/39 
f 53/5/39 42/5/35 41/5/35 51/5/39 
f 45/5/37 22/5/18 21/5/17 54/5/39 
f 21/5/17 20/5/17 55/5/39 54/5/39 
f 52/5/39 46/5/37 45/5/37 54/5/39 
f 19/5/17 18/5/16 56/5/40 57/5/39 
f 56/5/40 58/5/40 59/5/39 57/5/39 
f 55/5/39 20/5/17 19/5/17 57/5/39 
f 60/5/40 44/5/36 43/5/35 61/5/39 
f 43/5/35 42/5/35 53/5/39 61/5/39 
f 59/5/39 58/5/40 60/5/40 61/5/39 
f 15/5/13 62/5/41 63/5/41 64/5/41 34/5/30 26/1/22 25/2/21 30/3/26 29/4/25 32/5/28 39/5/33 44/5/36 60/5/40 58/5/40 56/5/40 18/5/16 16/5/14 9/5/9 7/4/7 6/3/6 3/2/3 2/1/2 
f 13/7/12 12/8/12 65/8/42 66/7/42 
f 49/6/38 48/6/38 67/8/42 68/8/42 
f 36/7/31 35/9/31 69/9/42 70/7/42 
f 63/5/41 62/5/41 71/9/42 72/9/42 
f 50/6/38 49/6/38 68/8/42 65/8/42 
f 62/5/41 15/5/13 14/9/12 71/9/42 
f 48/6/38 33/6/29 37/8/31 67/8/42 
f 64/5/41 63/5/41 72/9/42 69/9/42 
f 35/9/31 34/5/30 64/5/41 69/9/42 
f 14/9/12 13/7/12 66/7/42 71/9/42 
f 12/8/12 11/6/11 50/6/38 65/8/42 
f 37/8/31 36/7/31 70/7/42 67/8/42 
s off
f 51/5/39 52/5/39 73/5/43 74/5/44 
f 53/5/39 51/5/39 74/5/44 75/5/45 
f 54/5/39 55/5/39 76/5/46 77/5/47 
f 52/5/39 54/5/39 77/5/47 73/5/43 
f 57/5/39 59/5/39 78/5/48 79/5/49 
f 55/5/39 57/5/39 79/5/49 76/5/46 
f 61/5/39 53/5/39 75/5/45 80/5/50 
f 59/5/39 61/5/39 80/5/50 78/5/48 
f 71/9/42 66/7/42 81/7/51 82/9/52 
f 70/7/42 69/9/42 83/9/53 84/7/54 
f 72/9/42 71/9/42 82/9/52 85/9/55 
f 69/9/42 72/9/42 85/9/55 83/9/53 
f 66/7/42 65/8/42 86/8/56 81/7/51 
f 67/8/42 70/7/42 84/7/54 87/8/57 
f 68/8/42 67/8/42 87/8/57 88/8/58 
f 65/8/42 68/8/42 88/8/58 86/8/56 
s 5
f 76/5/46 79/5/49 89/10/59 90/11/60 
s 2
f 79/5/49 78/5/48 91/10/61 89/10/59 
s 1
f 78/5/48 80/5/50 92/10/62 91/10/61 
s 2
f 80/5/50 75/5/45 93/11/63 92/10/62 
s 1
f 75/5/45 74/5/44 94/12/64 93/11/63 
s 2
f 74/5/44 73/5/43 95/12/65 94/12/64 
s 1
f 73/5/43 77/5/47 96/12/66 95/12/65 
s 6
f 77/5/47 76/5/46 90/11/60 96/12/66 
s 5
f 97/13/67 82/9/52 81/7/51 98/14/68 
s 2
f 99/13/69 85/9/55 82/9/52 97/13/67 
s 1
f 100/13/70 83/9/53 85/9/55 99/13/69 
s 2
f 101/14/71 84/7/54 83/9/53 100/13/70 
s 1
f 102/15/72 87/8/57 84/7/54 101/14/71 
s 2
f 103/15/73 88/8/58 87/8/57 102/15/72 
s 1
f 104/15/74 86/8/56 88/8/58 103/15/73 
s 6
f 98/14/68 81/7/51 86/8/56 104/15/74 
s 5
f 89/10/59 97/13/67 98/14/68 90/11/60 
s 2
f 91/10/61 99/13/69 97/13/67 89/10/59 
s 1
f 92/10/62 100/13/70 99/13/69 91/10/61 
s 2
f 93/11/63 101/14/71 100/13/70 92/10/62 
s 1
f 94/12/64 102/15/72 101/14/71 93/11/63 
s 2
f 95/12/65 103/15/73 102/15/72 94/12/64 
s 1
f 96/12/66 104/15/74 103/15/73 95/12/65 
s 6
f 90/11/60 98/14/68 104/15/74 96/12/66 
# 80 polygons

#
# object Plane005
#

v  343.9695 0.0000 -51.9097
v  343.9695 0.0000 -40.6779
v  343.9695 58.4241 -40.6779
v  343.9695 58.4241 -51.9097
v  338.9446 0.0000 -34.6486
v  323.9225 0.0000 -34.6486
v  323.9225 58.4241 -34.6486
v  338.9446 58.4241 -34.6486
v  329.7992 0.0000 -40.5105
v  329.7992 58.4241 -40.5105
v  338.6407 0.0000 -57.9027
v  338.6407 58.4241 -57.9027
v  324.0328 0.0000 -46.2757
v  324.0328 58.4241 -46.2757
v  312.4197 0.0008 -34.6487
v  312.4197 58.4249 -34.6487
v  287.8533 0.0008 -34.6487
v  287.8533 58.4249 -34.6487
# 18 vertices

vn -0.9347 0.0000 0.3555
vn -0.9403 0.0000 -0.3404
vn -0.4241 0.0000 -0.9056
vn 0.9241 0.0000 -0.3821
vn 1.0000 0.0000 0.0006
vn -0.7473 0.0000 0.6645
vn -0.0004 0.0000 -1.0000
vn -0.3830 0.0000 -0.9238
vn 0.0000 0.0000 -1.0000
# 9 vertex normals

vt 1.0000 0.8098 0.0000
vt 1.0000 0.1917 0.0000
vt 0.9614 0.0000 0.0000
vt 0.8270 0.0000 0.0000
vt 0.8270 0.3397 0.0000
vt 0.9469 1.0000 0.0000
# 6 texture coords

o Plane005
g Plane005
usemtl wire_143225087
s off
f 105/16/75 106/17/76 107/17/76 108/16/75 
f 109/18/77 110/19/78 111/19/78 112/18/77 
f 110/19/78 113/20/79 114/20/79 111/19/78 
f 115/21/80 105/16/75 108/16/75 116/21/80 
f 106/17/76 109/18/77 112/18/77 107/17/76 
f 114/20/79 113/20/79 117/20/81 118/20/81 
f 118/20/81 117/20/81 119/20/82 120/20/82 
f 120/20/82 119/20/82 121/20/83 122/20/83 
# 8 polygons

#
# object Plane006
#

v  231.2292 0.0000 -51.9097
v  231.2292 58.4241 -51.9097
v  231.2292 58.4241 -40.6779
v  231.2292 0.0000 -40.6779
v  236.2540 0.0000 -34.6486
v  236.2540 58.4241 -34.6486
v  251.2761 58.4241 -34.6486
v  251.2761 0.0000 -34.6486
v  245.3994 58.4241 -40.5105
v  245.3994 0.0000 -40.5105
v  236.5579 0.0000 -57.9027
v  236.5579 58.4241 -57.9027
v  251.1658 58.4241 -46.2757
v  251.1658 0.0000 -46.2757
v  262.7789 58.4249 -34.6487
v  262.7789 0.0008 -34.6487
v  287.3453 58.4249 -34.6487
v  287.3453 0.0008 -34.6487
# 18 vertices

vn 0.9347 0.0000 0.3555
vn 0.9403 0.0000 -0.3404
vn 0.4241 0.0000 -0.9056
vn -0.9241 0.0000 -0.3821
vn -1.0000 0.0000 0.0006
vn 0.7473 0.0000 0.6645
vn 0.0004 0.0000 -1.0000
vn 0.3830 0.0000 -0.9238
vn 0.0000 0.0000 -1.0000
# 9 vertex normals

vt 1.0000 0.8098 0.0000
vt 1.0000 0.1917 0.0000
vt 0.9614 0.0000 0.0000
vt 0.8270 0.0000 0.0000
vt 0.8270 0.3397 0.0000
vt 0.9469 1.0000 0.0000
# 6 texture coords

o Plane006
g Plane006
usemtl wire_143225087
s off
f 123/22/84 124/22/84 125/23/85 126/23/85 
f 127/24/86 128/24/86 129/25/87 130/25/87 
f 130/25/87 129/25/87 131/26/88 132/26/88 
f 133/27/89 134/27/89 124/22/84 123/22/84 
f 126/23/85 125/23/85 128/24/86 127/24/86 
f 131/26/88 135/26/90 136/26/90 132/26/88 
f 135/26/90 137/26/91 138/26/91 136/26/90 
f 137/26/91 139/26/92 140/26/92 138/26/91 
# 8 polygons

#
# object Plane007
#

