# 3ds Max Wavefront OBJ Exporter v0.97b - (c)2007 guruware
# File Created: 03.02.2018 15:57:43

mtllib ex2.mtl

#
# object Plane001
#

#
# object Plane004
#

v  -55.8621 -0.0000 -5.6340
v  -55.8621 58.4241 -5.6340
v  -55.8621 58.4241 5.5977
v  -55.8621 -0.0000 5.5977
v  -50.8373 -0.0000 11.6271
v  -50.8373 58.4241 11.6271
v  -35.8151 58.4241 11.6271
v  -35.8151 -0.0000 11.6271
v  -41.6919 58.4241 5.7651
v  -41.6919 -0.0000 5.7651
v  -50.5334 -0.0000 -11.6271
v  -50.5334 58.4241 -11.6271
v  -35.9255 58.4241 -0.0000
v  -35.9255 -0.0000 -0.0000
v  -24.3124 58.4249 11.6270
v  -24.3124 0.0008 11.6270
v  56.3702 0.0000 -5.6340
v  56.3702 0.0000 5.5977
v  56.3702 58.4241 5.5977
v  56.3702 58.4241 -5.6340
v  51.3453 0.0000 11.6271
v  36.3232 0.0000 11.6271
v  36.3232 58.4241 11.6271
v  51.3453 58.4241 11.6271
v  42.1999 0.0000 5.7651
v  42.1999 58.4241 5.7651
v  51.0414 0.0000 -11.6271
v  51.0414 58.4241 -11.6271
v  36.4335 0.0000 -0.0000
v  36.4335 58.4241 -0.0000
v  24.8204 0.0008 11.6270
v  24.8204 58.4249 11.6270
# 32 vertices

vn 0.7219 0.6352 0.2745
vn 0.7219 -0.6352 0.2745
vn 0.7241 -0.6379 -0.2622
vn 0.7241 0.6379 -0.2622
vn 0.3318 0.6229 -0.7084
vn 0.3318 -0.6229 -0.7084
vn -0.7737 -0.5469 -0.3199
vn -0.7737 0.5469 -0.3199
vn -0.8166 0.5773 0.0005
vn -0.8166 -0.5773 0.0005
vn 0.3196 0.6255 0.7118
vn 0.3196 -0.6255 0.7118
vn 0.0003 0.5773 -0.8165
vn 0.0003 -0.5773 -0.8165
vn 0.2973 -0.6302 -0.7172
vn 0.2973 0.6302 -0.7173
vn -0.7219 0.6352 0.2745
vn -0.7241 0.6379 -0.2622
vn -0.7241 -0.6379 -0.2622
vn -0.7219 -0.6352 0.2745
vn -0.3318 0.6229 -0.7084
vn 0.7737 0.5469 -0.3199
vn 0.7737 -0.5469 -0.3199
vn -0.3318 -0.6229 -0.7084
vn 0.8166 -0.5773 0.0005
vn 0.8166 0.5773 0.0005
vn -0.3196 0.6255 0.7118
vn -0.3196 -0.6255 0.7118
vn -0.0003 -0.5773 -0.8165
vn -0.0003 0.5773 -0.8165
vn -0.2973 0.6302 -0.7173
vn -0.2973 -0.6302 -0.7172
# 32 vertex normals

vt 1.0000 0.8098 0.0000
vt 1.0000 0.1917 0.0000
vt 0.9614 0.0000 0.0000
vt 0.8270 0.0000 0.0000
vt 0.8270 0.3397 0.0000
vt 0.9469 1.0000 0.0000
# 6 texture coords

o Plane004
g Plane004
usemtl wire_143225087
s off
f 1/1/1 2/1/2 3/2/3 4/2/4 
f 5/3/5 6/3/6 7/4/7 8/4/8 
f 8/4/8 7/4/7 9/5/9 10/5/10 
f 11/6/11 12/6/12 2/1/2 1/1/1 
f 4/2/4 3/2/3 6/3/6 5/3/5 
f 9/5/9 13/5/13 14/5/14 10/5/10 
f 13/5/13 15/5/15 16/5/16 14/5/14 
f 17/1/17 18/2/18 19/2/19 20/1/20 
f 21/3/21 22/4/22 23/4/23 24/3/24 
f 22/4/22 25/5/25 26/5/26 23/4/23 
f 27/6/27 17/1/17 20/1/20 28/6/28 
f 18/2/18 21/3/21 24/3/24 19/2/19 
f 26/5/26 25/5/25 29/5/29 30/5/30 
f 30/5/30 29/5/29 31/5/31 32/5/32 
s 1
f 32/5/32 31/5/31 16/5/16 15/5/15 
f 27/6/27 28/5/28 12/5/12 11/6/11 
s off
f 2/1/2 12/6/12 28/5/28 20/1/20 19/2/19 24/3/24 23/4/23 26/5/26 30/5/30 32/5/32 15/5/15 13/5/13 9/5/9 7/4/7 6/3/6 3/2/3 
f 4/2/4 5/3/5 8/4/8 10/5/10 14/5/14 16/5/16 31/5/31 29/5/29 25/5/25 22/4/22 21/3/21 18/2/18 17/1/17 27/6/27 11/6/11 1/1/1 
# 18 polygons

#
# object Plane005
#

v  343.9695 0.0000 -51.9097
v  343.9695 0.0000 -40.6779
v  343.9695 58.4241 -40.6779
v  343.9695 58.4241 -51.9097
v  338.9446 0.0000 -34.6486
v  323.9225 0.0000 -34.6486
v  323.9225 58.4241 -34.6486
v  338.9446 58.4241 -34.6486
v  329.7992 0.0000 -40.5105
v  329.7992 58.4241 -40.5105
v  338.6407 0.0000 -57.9027
v  338.6407 58.4241 -57.9027
v  324.0328 0.0000 -46.2757
v  324.0328 58.4241 -46.2757
v  312.4197 0.0008 -34.6487
v  312.4197 58.4249 -34.6487
v  287.8533 0.0008 -34.6487
v  287.8533 58.4249 -34.6487
# 18 vertices

vn -0.9347 0.0000 0.3555
vn -0.9403 0.0000 -0.3404
vn -0.4241 0.0000 -0.9056
vn 0.9241 0.0000 -0.3821
vn 1.0000 0.0000 0.0006
vn -0.7473 0.0000 0.6645
vn -0.0004 0.0000 -1.0000
vn -0.3830 0.0000 -0.9238
vn 0.0000 0.0000 -1.0000
# 9 vertex normals

vt 1.0000 0.8098 0.0000
vt 1.0000 0.1917 0.0000
vt 0.9614 0.0000 0.0000
vt 0.8270 0.0000 0.0000
vt 0.8270 0.3397 0.0000
vt 0.9469 1.0000 0.0000
# 6 texture coords

o Plane005
g Plane005
usemtl wire_143225087
s off
f 33/7/33 34/8/34 35/8/34 36/7/33 
f 37/9/35 38/10/36 39/10/36 40/9/35 
f 38/10/36 41/11/37 42/11/37 39/10/36 
f 43/12/38 33/7/33 36/7/33 44/12/38 
f 34/8/34 37/9/35 40/9/35 35/8/34 
f 42/11/37 41/11/37 45/11/39 46/11/39 
f 46/11/39 45/11/39 47/11/40 48/11/40 
f 48/11/40 47/11/40 49/11/41 50/11/41 
# 8 polygons

#
# object Plane006
#

v  231.2292 0.0000 -51.9097
v  231.2292 58.4241 -51.9097
v  231.2292 58.4241 -40.6779
v  231.2292 0.0000 -40.6779
v  236.2540 0.0000 -34.6486
v  236.2540 58.4241 -34.6486
v  251.2761 58.4241 -34.6486
v  251.2761 0.0000 -34.6486
v  245.3994 58.4241 -40.5105
v  245.3994 0.0000 -40.5105
v  236.5579 0.0000 -57.9027
v  236.5579 58.4241 -57.9027
v  251.1658 58.4241 -46.2757
v  251.1658 0.0000 -46.2757
v  262.7789 58.4249 -34.6487
v  262.7789 0.0008 -34.6487
v  287.3453 58.4249 -34.6487
v  287.3453 0.0008 -34.6487
# 18 vertices

vn 0.9347 0.0000 0.3555
vn 0.9403 0.0000 -0.3404
vn 0.4241 0.0000 -0.9056
vn -0.9241 0.0000 -0.3821
vn -1.0000 0.0000 0.0006
vn 0.7473 0.0000 0.6645
vn 0.0004 0.0000 -1.0000
vn 0.3830 0.0000 -0.9238
vn 0.0000 0.0000 -1.0000
# 9 vertex normals

vt 1.0000 0.8098 0.0000
vt 1.0000 0.1917 0.0000
vt 0.9614 0.0000 0.0000
vt 0.8270 0.0000 0.0000
vt 0.8270 0.3397 0.0000
vt 0.9469 1.0000 0.0000
# 6 texture coords

o Plane006
g Plane006
usemtl wire_143225087
s off
f 51/13/42 52/13/42 53/14/43 54/14/43 
f 55/15/44 56/15/44 57/16/45 58/16/45 
f 58/16/45 57/16/45 59/17/46 60/17/46 
f 61/18/47 62/18/47 52/13/42 51/13/42 
f 54/14/43 53/14/43 56/15/44 55/15/44 
f 59/17/46 63/17/48 64/17/48 60/17/46 
f 63/17/48 65/17/49 66/17/49 64/17/48 
f 65/17/49 67/17/50 68/17/50 66/17/49 
# 8 polygons

#
# object Plane007
#

